<?xml version="1.0" encoding="UTF-8"?>
<svg id="Layer_1" data-name="Layer 1" xmlns="http://www.w3.org/2000/svg" xmlns:xlink="http://www.w3.org/1999/xlink" viewBox="0 0 1080 1080">
  <defs>
    <style>
      .cls-1 {
        fill: #febe1d;
      }

      .cls-1, .cls-2, .cls-3, .cls-4, .cls-5, .cls-6 {
        stroke-width: 0px;
      }

      .cls-2 {
        fill: url(#linear-gradient);
      }

      .cls-3 {
        fill: #f4a025;
      }

      .cls-4 {
        fill: #fede4f;
      }

      .cls-5 {
        fill: #ffa37b;
      }

      .cls-6 {
        fill: #fff;
      }
    </style>
    <linearGradient id="linear-gradient" x1="-206.62" y1="-505.39" x2="-31.22" y2="-526.37" gradientTransform="translate(910.33 1038.23) rotate(-18.3)" gradientUnits="userSpaceOnUse">
      <stop offset=".11" stop-color="#ed61f1"/>
      <stop offset=".43" stop-color="#ae68f3"/>
      <stop offset=".7" stop-color="#7f6ef6"/>
      <stop offset=".84" stop-color="#6d71f7"/>
    </linearGradient>
  </defs>
  <g>
    <path class="cls-2" d="M702.56,526.07l9.7,29.34s-5.31,9.74-24.3,15.31c-83.18,18.93-142.31,96.94-142.31,96.94,0,0,45.37-97.4,129.04-140.04,18.57-6.86,27.87-1.54,27.87-1.54Z"/>
    <path class="cls-6" d="M696.95,529.16l8.97,27.11s-7.85,11.7-27.3,11.55c-27.02-.2-61.37,19.19-61.37,19.19,0,0,27.7-33.53,50.89-50.85,15.59-11.63,28.8-7,28.8-7Z"/>
    <path class="cls-5" d="M693.22,537.11l4.96,15.01s-9.32,7.26-21.3,6.25c-11.62-.98-16.43-.5-16.43-.5,0,0,3.2-5.36,11.94-13.08,9.01-7.95,20.82-7.68,20.82-7.68Z"/>
    <path class="cls-1" d="M944.68,419.6c-.37,3.62-3.6,6.26-7.22,5.89-1.07-.11-2.06-.47-2.9-1.01-.25-.16-.48-.34-.71-.53h0s-.07-.06-.1-.09c-.05-.04-.1-.08-.14-.13-.08-.07-.16-.15-.23-.23h0c-1.28-1.35-2-3.23-1.8-5.23.37-3.62,3.6-6.26,7.22-5.89s6.26,3.6,5.89,7.22Z"/>
    <polygon class="cls-4" points="902.77 456.25 933.37 423.5 933.85 423.95 911.61 455.76 905.2 457.88 902.77 456.25"/>
    <polygon class="cls-1" points="934.56 424.48 933.85 423.95 911.61 455.76 914.23 457.84 919.37 455.53 934.56 424.48"/>
    <polygon class="cls-4" points="692.05 545.83 682.84 488.73 704.96 468.55 767.94 496.28 707.81 476.64 689.79 493.17 692.05 545.83"/>
    <path class="cls-1" d="M692.05,545.83l-2.26-52.66,18.02-16.53,60.13,19.64c-21.37,11.45-47.56,27.42-75.89,49.54Z"/>
    <polygon class="cls-4" points="748.49 600.16 718.7 597.15 692.05 545.83 721.64 589.44 745.96 591.96 782.51 540.34 748.49 600.16"/>
    <path class="cls-1" d="M745.96,591.96l-24.32-2.52-29.59-43.62c35.93.87,66.48-1.94,90.47-5.49l-36.55,51.62Z"/>
    <path class="cls-1" d="M811.21,528.86c-4.24,1.08-18.8,4.73-37.43,7.98-12.12,2.11-22.03,3.37-26.85,3.95-4.56.55-7.97.89-9.82,1.08-8.9.91-21.89,1.79-45.05,3.94,19.87-12.09,30.84-19.12,38.52-23.7,1.6-.96,4.54-2.71,8.53-4.99,4.21-2.41,12.92-7.31,23.91-12.84,16.9-8.5,30.76-14.26,34.81-15.91,11.99-4.91,28.37-11.63,49.49-17.14,19.44-5.07,33.56-6.68,60.86-9.79,18.89-2.16,36.38-3.52,52.21-4.38-13.22,8.75-28.08,18.08-44.52,27.61-23.77,13.78-36.07,20.91-54.69,28.43-20.24,8.18-37.4,12.55-49.95,15.76Z"/>
    <path class="cls-4" d="M827.19,477.23l7.48-4.01,7.07-.47s-1.63,1.17,1.02,5.84c2.66,4.67,21.29,16.63,42.95,18.25l-4.33,5.36-40.29-11.35-13.89-13.63Z"/>
    <path class="cls-3" d="M827.19,477.23s20.21,30.54,54.24,26.68l11.6-3.33,9.23-8.05s-31.29,17.28-75.07-15.3Z"/>
    <path class="cls-4" d="M730.57,522.12c-7.68,4.58-18.65,11.61-38.52,23.7,28.33-22.13,54.52-38.09,75.89-49.54.42-.23.84-.45,1.26-.68,9.46-5.04,18.82-9.99,31.99-15.5,13.12-5.49,44.86-17.76,87.93-22.95,18.63-2.24,42.16-2.84,71.26-.08-15.83.86-33.32,2.23-52.21,4.38-27.3,3.12-41.42,4.73-60.86,9.79-21.12,5.51-37.5,12.23-49.49,17.14-4.05,1.66-17.91,7.41-34.81,15.91-10.99,5.53-19.7,10.43-23.91,12.84-3.99,2.28-6.93,4.03-8.53,4.99Z"/>
    <path class="cls-3" d="M818.85,533.5c-13.86,3.42-24.33,5.03-34.92,6.63-.47.07-.94.14-1.41.21-23.98,3.55-54.53,6.35-90.47,5.49,23.16-2.15,36.16-3.04,45.05-3.94,1.85-.19,5.26-.53,9.82-1.08,4.81-.58,14.72-1.84,26.85-3.95,18.64-3.25,33.19-6.9,37.43-7.98,12.55-3.2,29.71-7.58,49.95-15.76,18.63-7.52,30.92-14.65,54.69-28.43,16.45-9.53,31.3-18.86,44.52-27.61-21.71,19.56-40.96,33.12-57.25,42.42-37.66,21.51-70.46,30.59-84.27,34.01Z"/>
    <path class="cls-1" d="M956.27,424.58l-14.47,25.47c-.84-.1-3.43-.33-6.07-.41l20.14-25.45c.13.14.26.27.39.39Z"/>
    <path class="cls-4" d="M955.87,424.19l-20.14,25.45c-.78-.03-1.57-.04-2.31-.03-.65,0-2.08.08-3.06.16,8.4-8.64,16.81-17.29,25.21-25.93.1.12.2.24.31.35Z"/>
    <path class="cls-1" d="M967.24,420.35c-.37,3.62-3.6,6.26-7.22,5.89-1.32-.13-2.51-.65-3.47-1.43-.09-.08-.19-.15-.27-.23-.14-.12-.27-.25-.39-.39-.11-.11-.21-.23-.31-.35-1.06-1.3-1.62-3.01-1.44-4.82.37-3.62,3.6-6.26,7.22-5.89,3.62.37,6.26,3.6,5.89,7.22Z"/>
  </g>
  <g>
    <g>
      <path class="cls-6" d="M173.72,443.18h30.71c22.26,0,32.41,12.23,32.41,27.33,0,9.5-4.03,19.39-13.93,24.34l17.05,32.8h-22.65l-14.71-29.41h-8.98v29.41h-19.91v-84.46ZM217.32,471.55c0-7.16-4.16-11.71-12.49-11.71h-11.19v23.43h11.19c8.2,0,12.49-4.56,12.49-11.71Z"/>
      <path class="cls-6" d="M247.38,485.48c0-24.08,18.09-43.6,44.38-43.6s44.51,19.13,44.51,43.47-18.87,43.47-44.51,43.47-44.38-18.74-44.38-43.34ZM315.58,485.48c0-13.54-9.89-24.73-23.82-24.73s-23.82,11.45-23.82,24.86,10.02,24.34,23.82,24.34,23.82-10.93,23.82-24.47Z"/>
      <path class="cls-6" d="M345.51,485.35c0-23.95,17.31-43.47,44.12-43.47,15.62,0,28.37,7.03,36.31,19.39l-17.7,10.02c-3.9-6.38-10.54-10.54-18.74-10.54-13.67,0-23.43,11.45-23.43,24.6s9.76,24.6,23.69,24.6c8.07,0,14.84-4.16,18.74-10.54l17.7,10.02c-8.07,12.36-20.69,19.39-36.31,19.39-27.07,0-44.38-19.52-44.38-43.47Z"/>
      <path class="cls-6" d="M437.39,443.18h20.3v35.01l26.16-35.01h24.21l-30.06,38,33.06,46.46h-23.82l-22.13-30.84-7.42,8.85v21.99h-20.3v-84.46Z"/>
      <path class="cls-6" d="M519.25,443.18h54.92v17.57h-35.01v15.75h31.89v17.18h-31.89v16.27h35.27v17.7h-55.18v-84.46Z"/>
      <path class="cls-6" d="M608.78,461.79h-26.16v-18.61h72.75v18.61h-26.16v65.85h-20.43v-65.85Z"/>
    </g>
    <path class="cls-6" d="M199.88,572.27h-26.16v-18.61h72.75v18.61h-26.16v65.85h-20.43v-65.85Z"/>
    <path class="cls-6" d="M257.79,553.66h54.92v17.57h-35.01v15.75h31.89v17.18h-31.89v16.27h35.27v17.7h-55.18v-84.46Z"/>
    <path class="cls-6" d="M349.93,553.66h24.47l29.93,84.46h-21.08l-4.82-14.84h-32.93l-4.95,14.84h-20.69l30.06-84.46ZM372.58,605.72l-10.41-32.28-10.8,32.28h21.21Z"/>
    <path class="cls-6" d="M434,582.94v55.18h-19.52v-84.46h27.98l19.65,60.39,19.39-60.39h28.24v84.46h-19.52v-55.83l-18.09,55.83h-20.3l-17.83-55.18Z"/>
  </g>
  <g>
    <path class="cls-1" d="M113.12,465.32v-22.32h9.51v21.84c0,6.32,3.13,9.02,8.18,9.02s8.18-2.71,8.18-9.02v-21.84h9.5v22.32c0,11.49-7.1,17.27-17.69,17.27s-17.69-5.78-17.69-17.27Z"/>
    <path class="cls-1" d="M112.73,514.63c0-11.07,8-20.09,20.39-20.09,7.22,0,13.11,3.25,16.78,8.96l-8.18,4.63c-1.8-2.95-4.87-4.87-8.66-4.87-6.32,0-10.83,5.29-10.83,11.37s4.51,11.37,10.95,11.37c3.73,0,6.86-1.93,8.66-4.87l8.18,4.63c-3.73,5.71-9.56,8.96-16.78,8.96-12.51,0-20.51-9.02-20.51-20.09Z"/>
    <path class="cls-1" d="M114.57,579.76l6.26-5.96c2.77,3.49,6.56,4.87,10.11,4.87,3.73,0,5.9-1.14,5.9-3.73,0-1.93-1.62-3.07-4.51-3.97l-5.05-1.5c-5.05-1.56-10.95-4.15-10.95-11.43s6.14-11.37,14.68-11.37c6.08,0,11.43,2.35,14.8,6.44l-5.96,5.96c-2.23-2.59-5.41-4.27-8.84-4.27s-5.35,1.08-5.35,3.19c0,1.93,1.99,2.77,4.51,3.49l5.84,1.8c5.05,1.5,10.17,4.57,10.17,11.43,0,8.06-6.74,12.15-15.22,12.15-7.1,0-12.39-2.05-16.36-7.1Z"/>
    <path class="cls-1" d="M112.73,618.91c0-11.07,8-20.09,20.39-20.09,7.22,0,13.11,3.25,16.78,8.96l-8.18,4.63c-1.8-2.95-4.87-4.87-8.66-4.87-6.32,0-10.83,5.29-10.83,11.37s4.51,11.37,10.95,11.37c3.73,0,6.86-1.93,8.66-4.87l8.18,4.63c-3.73,5.71-9.56,8.96-16.78,8.96-12.51,0-20.51-9.02-20.51-20.09Z"/>
  </g>
</svg>